{
  "accessors": [
    {
      "bufferView": 2,
      "componentType": 5126,
      "count": 1159,
      "max": [
        295.2190856933594,
        52.821693420410156,
        72.01873016357422
      ],
      "min": [
        -296.2493591308594,
        -52.30308151245117,
        -115.55989837646484
      ],
      "type": "VEC3"
    },
    {
      "bufferView": 2,
      "byteOffset": 13908,
      "componentType": 5126,
      "count": 1159,
      "max": [
        0.9999470710754395,
        0.9994156360626221,
        0.9975974559783936
      ],
      "min": [
        -0.9997869729995728,
        -0.9990835785865784,
        -0.9934219717979431
      ],
      "type": "VEC3"
    },
    {
      "bufferView": 1,
      "componentType": 5126,
      "count": 1159,
      "max": [
        1.0,
        1.0
      ],
      "min": [
        0.0,
        0.0
      ],
      "type": "VEC2"
    },
    {
      "bufferView": 0,
      "componentType": 5125,
      "count": 3792,
      "type": "SCALAR"
    }
  ],
  "asset": {
    "extras": {
      "author": "depa_96 (https://sketchfab.com/depa_96)",
      "license": "CC-BY-4.0 (http://creativecommons.org/licenses/by/4.0/)",
      "source": "https://sketchfab.com/3d-models/mustache-free-model-bigote-3697959ccd3d464fb60e892b48ffff3f",
      "title": "Mustache Free Model (Bigote)"
    },
    "generator": "Sketchfab-12.66.0",
    "version": "2.0"
  },
  "bufferViews": [
    {
      "buffer": 0,
      "byteLength": 15168,
      "name": "floatBufferViews",
      "target": 34963
    },
    {
      "buffer": 0,
      "byteLength": 9272,
      "byteOffset": 15168,
      "byteStride": 8,
      "name": "floatBufferViews",
      "target": 34962
    },
    {
      "buffer": 0,
      "byteLength": 27816,
      "byteOffset": 24440,
      "byteStride": 12,
      "name": "floatBufferViews",
      "target": 34962
    }
  ],
  "buffers": [
    {
      "byteLength": 52256,
      "uri": "scene.bin"
    }
  ],
  "materials": [
    {
      "doubleSided": true,
      "name": "default",
      "pbrMetallicRoughness": {
        "baseColorFactor": [
          0.005572829822086463,
          0.00550832364647999,
          0.00550832364647999,
          1.0
        ],
        "metallicFactor": 0.0,
        "roughnessFactor": 0.6
      }
    }
  ],
  "meshes": [
    {
      "name": "Object_0",
      "primitives": [
        {
          "attributes": {
            "NORMAL": 1,
            "POSITION": 0,
            "TEXCOORD_0": 2
          },
          "indices": 3,
          "material": 0,
          "mode": 4
        }
      ]
    }
  ],
  "nodes": [
    {
      "children": [
        1
      ],
      "matrix": [
        1.0,
        0.0,
        0.0,
        0.0,
        0.0,
        2.220446049250313e-16,
        -1.0,
        0.0,
        0.0,
        1.0,
        2.220446049250313e-16,
        0.0,
        0.0,
        0.0,
        0.0,
        1.0
      ],
      "name": "Sketchfab_model"
    },
    {
      "children": [
        2
      ],
      "name": "3afc64bb875d410385b585360fa6e870.obj.cleaner.materialmerger.gles"
    },
    {
      "mesh": 0,
      "name": "Object_2"
    }
  ],
  "scene": 0,
  "scenes": [
    {
      "name": "Sketchfab_Scene",
      "nodes": [
        0
      ]
    }
  ]
}
