{
	"asset":{
		"generator":"Khronos glTF Blender I/O v4.4.56",
		"version":"2.0"
	},
	"scene":0,
	"scenes":[
		{
			"name":"Scene",
			"nodes":[
				0
			]
		}
	],
	"nodes":[
		{
			"mesh":0,
			"name":"glasses",
			"scale":[
				0.05000000074505806,
				0.05000000074505806,
				0.05000000074505806
			]
		}
	],
	"materials":[
		{
			"doubleSided":true,
			"name":"Color_D06.001",
			"pbrMetallicRoughness":{
				"baseColorFactor":[
					0.5830404758453369,
					0.5614430904388428,
					0.4146912693977356,
					1
				],
				"metallicFactor":0.6811449527740479,
				"metallicRoughnessTexture":{
					"index":0
				}
			}
		},
		{
			"alphaMode":"BLEND",
			"doubleSided":true,
			"name":"M_96_96_96.001",
			"pbrMetallicRoughness":{
				"baseColorFactor":[
					0.992156982421875,
					0,
					0,
					0.4617156982421875
				],
				"metallicFactor":0,
				"roughnessFactor":0.9302135109901428
			}
		},
		{
			"doubleSided":true,
			"name":"Color_A05.001",
			"pbrMetallicRoughness":{
				"baseColorFactor":[
					0.9960780143737793,
					0,
					0,
					1
				],
				"metallicFactor":0,
				"metallicRoughnessTexture":{
					"index":1
				}
			}
		}
	],
	"meshes":[
		{
			"name":"Mesh1_Color_D06_0.001",
			"primitives":[
				{
					"attributes":{
						"POSITION":0,
						"NORMAL":1,
						"TEXCOORD_0":2,
						"TEXCOORD_1":3,
						"TEXCOORD_2":4,
						"TEXCOORD_3":5,
						"TEXCOORD_4":6,
						"TEXCOORD_5":7,
						"TEXCOORD_6":8,
						"TEXCOORD_7":9
					},
					"indices":10,
					"material":0
				},
				{
					"attributes":{
						"POSITION":11,
						"NORMAL":12,
						"TEXCOORD_0":13,
						"TEXCOORD_1":14,
						"TEXCOORD_2":15,
						"TEXCOORD_3":16,
						"TEXCOORD_4":17,
						"TEXCOORD_5":18,
						"TEXCOORD_6":19,
						"TEXCOORD_7":20
					},
					"indices":21,
					"material":1
				},
				{
					"attributes":{
						"POSITION":22,
						"NORMAL":23,
						"TEXCOORD_0":24,
						"TEXCOORD_1":25,
						"TEXCOORD_2":26,
						"TEXCOORD_3":27,
						"TEXCOORD_4":28,
						"TEXCOORD_5":29,
						"TEXCOORD_6":30,
						"TEXCOORD_7":31
					},
					"indices":32,
					"material":2
				}
			]
		}
	],
	"textures":[
		{
			"sampler":0,
			"source":0
		},
		{
			"sampler":0,
			"source":0
		}
	],
	"images":[
		{
			"mimeType":"image/png",
			"name":"Color_D06_metallicRoughness",
			"uri":"Color_D06_metallicRoughness.png"
		}
	],
	"accessors":[
		{
			"bufferView":0,
			"componentType":5126,
			"count":3988,
			"max":[
				75.89834594726562,
				12.839250564575195,
				14.109587669372559
			],
			"min":[
				-74.81829071044922,
				-11.298479080200195,
				-123.44393157958984
			],
			"type":"VEC3"
		},
		{
			"bufferView":1,
			"componentType":5126,
			"count":3988,
			"type":"VEC3"
		},
		{
			"bufferView":2,
			"componentType":5126,
			"count":3988,
			"type":"VEC2"
		},
		{
			"bufferView":3,
			"componentType":5126,
			"count":3988,
			"type":"VEC2"
		},
		{
			"bufferView":4,
			"componentType":5126,
			"count":3988,
			"type":"VEC2"
		},
		{
			"bufferView":5,
			"componentType":5126,
			"count":3988,
			"type":"VEC2"
		},
		{
			"bufferView":6,
			"componentType":5126,
			"count":3988,
			"type":"VEC2"
		},
		{
			"bufferView":7,
			"componentType":5126,
			"count":3988,
			"type":"VEC2"
		},
		{
			"bufferView":8,
			"componentType":5126,
			"count":3988,
			"type":"VEC2"
		},
		{
			"bufferView":9,
			"componentType":5126,
			"count":3988,
			"type":"VEC2"
		},
		{
			"bufferView":10,
			"componentType":5123,
			"count":5880,
			"type":"SCALAR"
		},
		{
			"bufferView":11,
			"componentType":5126,
			"count":2695,
			"max":[
				66.51191711425781,
				27.26454734802246,
				15.05632495880127
			],
			"min":[
				-65.4227294921875,
				-23.89720916748047,
				10.804725646972656
			],
			"type":"VEC3"
		},
		{
			"bufferView":12,
			"componentType":5126,
			"count":2695,
			"type":"VEC3"
		},
		{
			"bufferView":13,
			"componentType":5126,
			"count":2695,
			"type":"VEC2"
		},
		{
			"bufferView":14,
			"componentType":5126,
			"count":2695,
			"type":"VEC2"
		},
		{
			"bufferView":15,
			"componentType":5126,
			"count":2695,
			"type":"VEC2"
		},
		{
			"bufferView":16,
			"componentType":5126,
			"count":2695,
			"type":"VEC2"
		},
		{
			"bufferView":17,
			"componentType":5126,
			"count":2695,
			"type":"VEC2"
		},
		{
			"bufferView":18,
			"componentType":5126,
			"count":2695,
			"type":"VEC2"
		},
		{
			"bufferView":19,
			"componentType":5126,
			"count":2695,
			"type":"VEC2"
		},
		{
			"bufferView":20,
			"componentType":5126,
			"count":2695,
			"type":"VEC2"
		},
		{
			"bufferView":21,
			"componentType":5123,
			"count":3756,
			"type":"SCALAR"
		},
		{
			"bufferView":22,
			"componentType":5126,
			"count":15214,
			"max":[
				73.36965942382812,
				34.547752380371094,
				14.373658180236816
			],
			"min":[
				-72.48018646240234,
				-29.923185348510742,
				11.373658180236816
			],
			"type":"VEC3"
		},
		{
			"bufferView":23,
			"componentType":5126,
			"count":15214,
			"type":"VEC3"
		},
		{
			"bufferView":24,
			"componentType":5126,
			"count":15214,
			"type":"VEC2"
		},
		{
			"bufferView":25,
			"componentType":5126,
			"count":15214,
			"type":"VEC2"
		},
		{
			"bufferView":26,
			"componentType":5126,
			"count":15214,
			"type":"VEC2"
		},
		{
			"bufferView":27,
			"componentType":5126,
			"count":15214,
			"type":"VEC2"
		},
		{
			"bufferView":28,
			"componentType":5126,
			"count":15214,
			"type":"VEC2"
		},
		{
			"bufferView":29,
			"componentType":5126,
			"count":15214,
			"type":"VEC2"
		},
		{
			"bufferView":30,
			"componentType":5126,
			"count":15214,
			"type":"VEC2"
		},
		{
			"bufferView":31,
			"componentType":5126,
			"count":15214,
			"type":"VEC2"
		},
		{
			"bufferView":32,
			"componentType":5123,
			"count":23760,
			"type":"SCALAR"
		}
	],
	"bufferViews":[
		{
			"buffer":0,
			"byteLength":47856,
			"byteOffset":0,
			"target":34962
		},
		{
			"buffer":0,
			"byteLength":47856,
			"byteOffset":47856,
			"target":34962
		},
		{
			"buffer":0,
			"byteLength":31904,
			"byteOffset":95712,
			"target":34962
		},
		{
			"buffer":0,
			"byteLength":31904,
			"byteOffset":127616,
			"target":34962
		},
		{
			"buffer":0,
			"byteLength":31904,
			"byteOffset":159520,
			"target":34962
		},
		{
			"buffer":0,
			"byteLength":31904,
			"byteOffset":191424,
			"target":34962
		},
		{
			"buffer":0,
			"byteLength":31904,
			"byteOffset":223328,
			"target":34962
		},
		{
			"buffer":0,
			"byteLength":31904,
			"byteOffset":255232,
			"target":34962
		},
		{
			"buffer":0,
			"byteLength":31904,
			"byteOffset":287136,
			"target":34962
		},
		{
			"buffer":0,
			"byteLength":31904,
			"byteOffset":319040,
			"target":34962
		},
		{
			"buffer":0,
			"byteLength":11760,
			"byteOffset":350944,
			"target":34963
		},
		{
			"buffer":0,
			"byteLength":32340,
			"byteOffset":362704,
			"target":34962
		},
		{
			"buffer":0,
			"byteLength":32340,
			"byteOffset":395044,
			"target":34962
		},
		{
			"buffer":0,
			"byteLength":21560,
			"byteOffset":427384,
			"target":34962
		},
		{
			"buffer":0,
			"byteLength":21560,
			"byteOffset":448944,
			"target":34962
		},
		{
			"buffer":0,
			"byteLength":21560,
			"byteOffset":470504,
			"target":34962
		},
		{
			"buffer":0,
			"byteLength":21560,
			"byteOffset":492064,
			"target":34962
		},
		{
			"buffer":0,
			"byteLength":21560,
			"byteOffset":513624,
			"target":34962
		},
		{
			"buffer":0,
			"byteLength":21560,
			"byteOffset":535184,
			"target":34962
		},
		{
			"buffer":0,
			"byteLength":21560,
			"byteOffset":556744,
			"target":34962
		},
		{
			"buffer":0,
			"byteLength":21560,
			"byteOffset":578304,
			"target":34962
		},
		{
			"buffer":0,
			"byteLength":7512,
			"byteOffset":599864,
			"target":34963
		},
		{
			"buffer":0,
			"byteLength":182568,
			"byteOffset":607376,
			"target":34962
		},
		{
			"buffer":0,
			"byteLength":182568,
			"byteOffset":789944,
			"target":34962
		},
		{
			"buffer":0,
			"byteLength":121712,
			"byteOffset":972512,
			"target":34962
		},
		{
			"buffer":0,
			"byteLength":121712,
			"byteOffset":1094224,
			"target":34962
		},
		{
			"buffer":0,
			"byteLength":121712,
			"byteOffset":1215936,
			"target":34962
		},
		{
			"buffer":0,
			"byteLength":121712,
			"byteOffset":1337648,
			"target":34962
		},
		{
			"buffer":0,
			"byteLength":121712,
			"byteOffset":1459360,
			"target":34962
		},
		{
			"buffer":0,
			"byteLength":121712,
			"byteOffset":1581072,
			"target":34962
		},
		{
			"buffer":0,
			"byteLength":121712,
			"byteOffset":1702784,
			"target":34962
		},
		{
			"buffer":0,
			"byteLength":121712,
			"byteOffset":1824496,
			"target":34962
		},
		{
			"buffer":0,
			"byteLength":47520,
			"byteOffset":1946208,
			"target":34963
		}
	],
	"samplers":[
		{
			"magFilter":9729,
			"minFilter":9987
		}
	],
	"buffers":[
		{
			"byteLength":1993728,
			"uri":"glass.bin"
		}
	]
}
